<svg width="19" height="17" fill="none" xmlns="http://www.w3.org/2000/svg"><path d="M1.243 12.926h13.729a.526.526 0 00.336-.121c.132-.111 3.14-2.699 3.324-8.284H3.887C3.704 9.59.934 11.974.905 11.998a.526.526 0 00.338.928zM18.124 1.368h-2.627V.843a.52.52 0 00-.525-.525.52.52 0 00-.526.525v.525h-2.662V.843a.52.52 0 00-.525-.525.52.52 0 00-.525.525v.525H8.107V.843a.52.52 0 00-.525-.525.52.52 0 00-.526.525v.525H4.43a.52.52 0 00-.526.526V3.47H18.65V1.894a.52.52 0 00-.525-.526z" fill="#4E4E4E"/><path d="M15.983 13.61a1.58 1.58 0 01-1.011.367H3.904v1.576c0 .29.235.525.526.525h13.694c.29 0 .525-.235.525-.525v-5.89c-1.013 2.486-2.426 3.746-2.666 3.947z" fill="#4E4E4E"/></svg>