<svg width="89" height="83" fill="none" xmlns="http://www.w3.org/2000/svg"><circle opacity=".3" cx="22.571" cy="22.266" r="21.587" fill="#FEDA22"/><mask id="a" fill="#fff"><path d="M87.973 20.844l-2.603-8.168c-.132-.364-.49-.823-1.118-.818h-7.436a1.174 1.174 0 100 2.349h4.601l-6.558 6.557-6.557-6.557h3.035a1.174 1.174 0 100-2.349H65.65l-32.706-9.88a1.188 1.188 0 00-1.016.164L19.51 10.895a2.273 2.273 0 00-2.09-1.384h-6.878a2.272 2.272 0 00-2.27 2.27v11.896a2.272 2.272 0 002.27 2.27h6.878a2.272 2.272 0 002.27-2.27v-.078h7.044V57.93a1.174 1.174 0 102.348 0v-4.486l6.558 6.557-6.558 6.558v-3.15a1.174 1.174 0 10-2.348 0v5.327l-8.308 5.089a2.284 2.284 0 00-1.084 1.935v4.043a2.272 2.272 0 002.27 2.27h25.985a2.272 2.272 0 002.27-2.27V75.76c0-.784-.416-1.526-1.085-1.935l-8.308-5.09V23.6h16.437v3.02a2.272 2.272 0 002.27 2.27h4.24v14.87c-.01 1.385 1.27 2.445 2.644 2.27v9.232c0 1.076.707 2.007 1.76 2.317a2.06 2.06 0 011.476 2.096c-.057 1.076-.981 1.95-2.062 1.95h-.006a2.067 2.067 0 01-1.705-.908 1.174 1.174 0 10-1.943 1.318 4.413 4.413 0 003.642 1.938h.011c2.31 0 4.286-1.87 4.408-4.174a4.4 4.4 0 00-3.159-4.473c-.042-.012-.074-.04-.074-.063V46.03c1.352.109 2.655-.824 2.645-2.27V28.889h4.706a2.272 2.272 0 002.27-2.27V23.6h9.925a2.12 2.12 0 001.706-.866 2.12 2.12 0 00.308-1.889zM17.342 23.6H10.62V11.86h6.722V23.6zm54.683-2.348H58.92l6.553-6.553 6.553 6.553zm-14.494-9.393H38.044L34.796 4.99l22.735 6.868zm-24.927-6.01l2.842 6.01h-5.684l2.842-6.01zm-2.967.781l-2.472 5.23h-4.946l7.418-5.23zm-9.947 7.578h5.384L19.69 19.59v-5.383zm1.66 7.044l6.558-6.558 6.558 6.558H21.351zm7.732 7.739V23.6h5.386l-5.386 5.39zm7.044-3.73v13.124l-6.558-6.559 6.558-6.564zm-7.044 9.4l6.558 6.558-6.558 6.558V34.66zm.487 15.95l6.557-6.557v13.115L29.57 50.61zm6.557 12.227v5.383h-5.383l5.383-5.383zm9.392 12.968v3.92H19.69v-3.92l8.55-5.237h8.73l8.548 5.237zm-8.22-55.043l-6.555-6.555h13.11l-6.555 6.555zm2.832.489l6.56-6.56 6.56 6.56H40.13zm15.954-.487l-6.557-6.557h13.115l-6.558 6.557zM66.71 43.683h-2.942V28.889h2.942v14.794zm6.976-17.142H57.258v-2.942h16.428v2.942zm4.008-5.29l6.024-6.025 1.92 6.025h-7.944z"/></mask><path d="M87.973 20.844l-2.603-8.168c-.132-.364-.49-.823-1.118-.818h-7.436a1.174 1.174 0 100 2.349h4.601l-6.558 6.557-6.557-6.557h3.035a1.174 1.174 0 100-2.349H65.65l-32.706-9.88a1.188 1.188 0 00-1.016.164L19.51 10.895a2.273 2.273 0 00-2.09-1.384h-6.878a2.272 2.272 0 00-2.27 2.27v11.896a2.272 2.272 0 002.27 2.27h6.878a2.272 2.272 0 002.27-2.27v-.078h7.044V57.93a1.174 1.174 0 102.348 0v-4.486l6.558 6.557-6.558 6.558v-3.15a1.174 1.174 0 10-2.348 0v5.327l-8.308 5.089a2.284 2.284 0 00-1.084 1.935v4.043a2.272 2.272 0 002.27 2.27h25.985a2.272 2.272 0 002.27-2.27V75.76c0-.784-.416-1.526-1.085-1.935l-8.308-5.09V23.6h16.437v3.02a2.272 2.272 0 002.27 2.27h4.24v14.87c-.01 1.385 1.27 2.445 2.644 2.27v9.232c0 1.076.707 2.007 1.76 2.317a2.06 2.06 0 011.476 2.096c-.057 1.076-.981 1.95-2.062 1.95h-.006a2.067 2.067 0 01-1.705-.908 1.174 1.174 0 10-1.943 1.318 4.413 4.413 0 003.642 1.938h.011c2.31 0 4.286-1.87 4.408-4.174a4.4 4.4 0 00-3.159-4.473c-.042-.012-.074-.04-.074-.063V46.03c1.352.109 2.655-.824 2.645-2.27V28.889h4.706a2.272 2.272 0 002.27-2.27V23.6h9.925a2.12 2.12 0 001.706-.866 2.12 2.12 0 00.308-1.889zM17.342 23.6H10.62V11.86h6.722V23.6zm54.683-2.348H58.92l6.553-6.553 6.553 6.553zm-14.494-9.393H38.044L34.796 4.99l22.735 6.868zm-24.927-6.01l2.842 6.01h-5.684l2.842-6.01zm-2.967.781l-2.472 5.23h-4.946l7.418-5.23zm-9.947 7.578h5.384L19.69 19.59v-5.383zm1.66 7.044l6.558-6.558 6.558 6.558H21.351zm7.732 7.739V23.6h5.386l-5.386 5.39zm7.044-3.73v13.124l-6.558-6.559 6.558-6.564zm-7.044 9.4l6.558 6.558-6.558 6.558V34.66zm.487 15.95l6.557-6.557v13.115L29.57 50.61zm6.557 12.227v5.383h-5.383l5.383-5.383zm9.392 12.968v3.92H19.69v-3.92l8.55-5.237h8.73l8.548 5.237zm-8.22-55.043l-6.555-6.555h13.11l-6.555 6.555zm2.832.489l6.56-6.56 6.56 6.56H40.13zm15.954-.487l-6.557-6.557h13.115l-6.558 6.557zM66.71 43.683h-2.942V28.889h2.942v14.794zm6.976-17.142H57.258v-2.942h16.428v2.942h0zm4.008-5.29l6.024-6.025 1.92 6.025h-7.944z" fill="#4E4E4E" stroke="#fff" stroke-width=".648" mask="url(#a)"/></svg>