<svg width="90" height="81" fill="none" xmlns="http://www.w3.org/2000/svg"><circle opacity=".3" r="21.431" transform="matrix(-1 0 0 1 22.132 22.025)" fill="#FEDA22"/><path d="M17.26 30.849v.16h-.16a5.03 5.03 0 000 10.06h18.006v-2.274H17.1a2.756 2.756 0 010-5.512h12.815V31.01h-3.892v-4.214h5.511v2.595h2.274v-3.733c0-.627-.51-1.137-1.137-1.137h-7.786c-.628 0-1.137.51-1.137 1.137v5.352h-4.213v-1.458a22.125 22.125 0 016.506-15.717l.113.114-.113-.114a22.509 22.509 0 013.95-3.137l.246-.154v5.87h2.273V9.353l.095-.043a21.82 21.82 0 013.922-1.345l.198-.048v12.551c0 .628.509 1.137 1.137 1.137h7.785c.628 0 1.137-.51 1.137-1.137V7.946l.198.047a21.9 21.9 0 013.922 1.335l.095.042v7.044h2.273v-5.838l.246.153a22.148 22.148 0 017.4 7.573l1.97-1.137A24.345 24.345 0 0046.911 5.62l-.128-.027v-3.29c0-.629-.509-1.138-1.137-1.138h-7.785c-.628 0-1.137.51-1.137 1.137v3.303l-.128.027C25.31 8.032 17.243 18.01 17.26 29.55v1.298zm21.9-11.518h-.161V3.439h5.511V19.33h-5.35z" fill="#4E4E4E" stroke="#fff" stroke-width=".321"/><path d="M87.332 46.26h-5.991c-.525 0-.982-.36-1.105-.87h0a20.806 20.806 0 00-2.47-5.958l9.566 6.828zm0 0v.16m0-.16v.16m0 0v7.946h-5.991c-.525 0-.982.36-1.105.87a20.71 20.71 0 01-2.47 5.957 1.137 1.137 0 00.166 1.397l4.125 4.126.114.114-.114.113-5.506 5.506-.114.114-.113-.114-4.126-4.125a1.137 1.137 0 00-1.397-.166s0 0 0 0l-.084-.137 16.615-21.6zm-5.161-12.623l-.114-.114-5.506-5.506-.114-.113-.113.113-4.126 4.126c-.371.371-.948.44-1.397.166a20.714 20.714 0 00-5.956-2.47c-.51-.124-.87-.58-.87-1.105v-5.992h-8.107v5.991c0 .525-.36.982-.87 1.105a20.714 20.714 0 00-5.957 2.47 1.137 1.137 0 01-1.397-.165l-4.125-4.126-.114-.113-.114.113-5.506 5.506-.113.114.113.114 4.126 4.125c.37.37.44.948.166 1.396 0 0 0 0 0 0l.137.084 39.957-5.719zm0 0l-.114.114m.114-.114l-.114.114m0 0l-4.125 4.125c-.371.37-.44.948-.166 1.396l4.291-5.521zm.127 22.846l.034-.116h6.25c.629 0 1.138-.51 1.138-1.137V45.123c0-.628-.51-1.137-1.137-1.137h-6.251l-.034-.116a22.937 22.937 0 00-1.966-4.741l-.059-.106.086-.086 4.337-4.336a1.136 1.136 0 000-1.608l-7.34-7.34a1.136 1.136 0 00-1.608 0l-4.337 4.336-.085.086-.106-.059a22.899 22.899 0 00-4.741-1.966l-.116-.033v-6.251c0-.628-.51-1.137-1.137-1.137H54.73c-.628 0-1.137.509-1.137 1.136v6.252l-.116.033a22.899 22.899 0 00-4.741 1.966l-.106.059-.086-.086-4.336-4.336a1.136 1.136 0 00-1.608 0l-7.34 7.34a1.136 1.136 0 000 1.608l4.336 4.336.086.086-.059.106a22.937 22.937 0 00-1.966 4.74l-.034.117h-6.25c-.628 0-1.137.509-1.137 1.137v10.38c0 .629.509 1.138 1.136 1.138h6.252l.034.116a22.887 22.887 0 001.966 4.74l.059.107-.086.085-4.336 4.337a1.136 1.136 0 000 1.607l7.34 7.34a1.136 1.136 0 001.608 0l4.336-4.336.086-.085.106.058a22.899 22.899 0 004.74 1.966l.117.034v6.251c0 .628.509 1.137 1.137 1.137h10.38c.629 0 1.138-.51 1.138-1.137V72.61l.116-.034a22.899 22.899 0 004.74-1.966l.107-.058.085.085 4.337 4.337a1.136 1.136 0 001.607 0l7.34-7.34a1.136 1.136 0 000-1.608l-4.336-4.337-.086-.085.06-.106a22.887 22.887 0 001.965-4.741zm-40.107 4.436l.137-.084 6.911 6.912-.084.137s0 0 0 0a1.137 1.137 0 00-1.397.166l-4.125 4.125-.114.114-.114-.114-5.506-5.506-.113-.114.113-.113 4.126-4.126c.371-.37.44-.948.166-1.397 0 0 0 0 0 0z" fill="#4E4E4E" stroke="#fff" stroke-width=".321"/><path d="M59.921 37.176h0c7.253.008 13.13 5.885 13.137 13.137v0c0 7.256-5.881 13.137-13.137 13.137-7.255 0-13.137-5.881-13.137-13.137 0-7.255 5.882-13.137 13.137-13.137zm-15.41 13.137c0 8.511 6.899 15.411 15.41 15.411 8.508-.01 15.402-6.903 15.41-15.41 0-8.512-6.899-15.411-15.41-15.411s-15.41 6.9-15.41 15.41z" fill="#4E4E4E" stroke="#fff" stroke-width=".321"/><path d="M52.296 50.313a7.625 7.625 0 007.625 7.625 7.633 7.633 0 007.625-7.625 7.625 7.625 0 00-15.25 0zm2.274 0a5.352 5.352 0 1110.703 0 5.352 5.352 0 01-10.703 0z" fill="#4E4E4E" stroke="#fff" stroke-width=".321"/></svg>