<svg width="95" height="83" fill="none" xmlns="http://www.w3.org/2000/svg"><circle opacity=".3" cx="23.099" cy="23.352" r="22.874" fill="#FEDA22"/><mask id="a" fill="#fff"><path d="M88.316 1.804H19.218a5.695 5.695 0 00-5.688 5.688V76.59a5.59 5.59 0 003.508 5.242 5.766 5.766 0 002.215.443 5.588 5.588 0 003.971-1.671l69.112-69.112a5.588 5.588 0 001.224-6.185 5.591 5.591 0 00-5.244-3.503zM90.44 9.6L21.326 78.713a3 3 0 01-5.114-2.123v-6.386h1.341a1.341 1.341 0 000-2.682h-1.34V64.84h4.023a1.341 1.341 0 100-2.683h-4.024v-2.682h1.342a1.341 1.341 0 000-2.683h-1.341V54.11h4.023a1.341 1.341 0 000-2.682h-4.024v-2.683h1.342a1.341 1.341 0 000-2.682h-1.341v-2.682h4.023a1.341 1.341 0 000-2.683h-4.024v-2.682h1.342a1.341 1.341 0 000-2.682h-1.341V32.65h4.023a1.341 1.341 0 000-2.682h-4.024v-2.682h1.342a1.341 1.341 0 000-2.683h-1.341v-2.682h4.023a1.341 1.341 0 000-2.683h-4.024v-2.682h1.342a1.341 1.341 0 100-2.682h-1.341V7.491a3.008 3.008 0 013.005-3.006h6.383v1.341a1.341 1.341 0 002.682 0v-1.34h2.682V8.51a1.341 1.341 0 102.683 0V4.486h2.682v1.341a1.341 1.341 0 102.682 0v-1.34h2.683V8.51a1.341 1.341 0 102.682 0V4.486h2.683v1.341a1.341 1.341 0 102.682 0v-1.34h2.682V8.51a1.341 1.341 0 002.683 0V4.486h2.682v1.341a1.341 1.341 0 002.682 0v-1.34h2.683V8.51a1.341 1.341 0 002.682 0V4.486h2.682v1.341a1.341 1.341 0 002.683 0v-1.34h2.682V8.51a1.341 1.341 0 002.682 0V4.486h2.683v1.341a1.341 1.341 0 002.682 0v-1.34h6.385a2.95 2.95 0 012.766 1.853 2.95 2.95 0 01-.642 3.26z"/></mask><path d="M88.316 1.804H19.218a5.695 5.695 0 00-5.688 5.688V76.59a5.59 5.59 0 003.508 5.242 5.766 5.766 0 002.215.443 5.588 5.588 0 003.971-1.671l69.112-69.112a5.588 5.588 0 001.224-6.185 5.591 5.591 0 00-5.244-3.503zM90.44 9.6L21.326 78.713a3 3 0 01-5.114-2.123v-6.386h1.341a1.341 1.341 0 000-2.682h-1.34V64.84h4.023a1.341 1.341 0 100-2.683h-4.024v-2.682h1.342a1.341 1.341 0 000-2.683h-1.341V54.11h4.023a1.341 1.341 0 000-2.682h-4.024v-2.683h1.342a1.341 1.341 0 000-2.682h-1.341v-2.682h4.023a1.341 1.341 0 000-2.683h-4.024v-2.682h1.342a1.341 1.341 0 000-2.682h-1.341V32.65h4.023a1.341 1.341 0 000-2.682h-4.024v-2.682h1.342a1.341 1.341 0 000-2.683h-1.341v-2.682h4.023a1.341 1.341 0 000-2.683h-4.024v-2.682h1.342a1.341 1.341 0 100-2.682h-1.341V7.491a3.008 3.008 0 013.005-3.006h6.383v1.341a1.341 1.341 0 002.682 0v-1.34h2.682V8.51a1.341 1.341 0 102.683 0V4.486h2.682v1.341a1.341 1.341 0 102.682 0v-1.34h2.683V8.51a1.341 1.341 0 102.682 0V4.486h2.683v1.341a1.341 1.341 0 102.682 0v-1.34h2.682V8.51a1.341 1.341 0 002.683 0V4.486h2.682v1.341a1.341 1.341 0 002.682 0v-1.34h2.683V8.51a1.341 1.341 0 002.682 0V4.486h2.682v1.341a1.341 1.341 0 002.683 0v-1.34h2.682V8.51a1.341 1.341 0 002.682 0V4.486h2.683v1.341a1.341 1.341 0 002.682 0v-1.34h6.385a2.95 2.95 0 012.766 1.853 2.95 2.95 0 01-.642 3.26z" fill="#4E4E4E" stroke="#fff" stroke-width=".686" mask="url(#a)"/><path d="M67.359 17.506a1.341 1.341 0 00-.949-2.29l.949 2.29zm0 0L29.233 55.632l38.126-38.126zm-.949-2.119h0c.474 0 .901.285 1.082.723h0c.181.437.08.94-.255 1.275h0L29.111 55.511h0a1.17 1.17 0 01-1.997-.827v0-38.127c0-.646.523-1.17 1.17-1.17H66.41zm-36.957 36.06v.414l.293-.293 33.548-33.549.293-.293H29.453v33.721zm53.819-11.918h.171v-5.537a2.51 2.51 0 012.511-2.51h5.365a2.51 2.51 0 012.51 2.511v5.364s0 0 0 0a2.483 2.483 0 01-.348 1.254l-.052.088.052.088c.226.38.346.812.349 1.253v5.364s0 0 0 0a2.483 2.483 0 01-.35 1.254l-.052.088.053.088c.226.379.346.812.349 1.253v5.364s0 0 0 0a2.483 2.483 0 01-.35 1.254l-.052.088.053.088c.226.379.346.812.349 1.253v5.364s0 0 0 0a2.483 2.483 0 01-.35 1.254l-.052.088.053.088c.226.379.346.812.349 1.253 0 0 0 0 0 0v5.364s0 0 0 0a2.482 2.482 0 01-.35 1.254l-.052.088.053.088c.226.379.346.812.349 1.253 0 0 0 0 0 0v5.365a2.51 2.51 0 01-2.511 2.51H77.908s0 0 0 0a2.483 2.483 0 01-1.255-.348l-.087-.052-.088.052a2.48 2.48 0 01-1.254.349s0 0 0 0H61.813a2.483 2.483 0 01-1.254-.35l-.087-.051-.088.052a2.48 2.48 0 01-1.254.349s0 0 0 0H45.718a2.51 2.51 0 01-2.511-2.511v-5.365a2.51 2.51 0 012.51-2.51h5.537V66.18a2.51 2.51 0 012.51-2.511h5.537v-5.536a2.51 2.51 0 012.51-2.511h5.537v-5.536a2.51 2.51 0 012.51-2.511h5.537v-5.537a2.51 2.51 0 012.511-2.51h5.365zm2.682-5.708h-.171v5.708h5.707V33.82h-5.536zm-8.047 8.047h-.171v5.708H91.49v-5.708H77.907zm7.876 13.583v.172h5.536v-.172h.171v-5.536h-5.707v5.536zm-8.047 8.047v.172h13.583v-.172h.171v-5.536H77.736v5.536zm8.047 8.048v.171h5.536v-.171h.171v-5.537h-5.707v5.537zm-16.094 0v.171h13.754V66.01H69.69v5.537zm.17-21.631h-.17v5.708h13.754v-5.708H69.86zm-8.046 8.047h-.172v5.708h13.755v-5.708H61.813zm-8.047 8.047h-.172v5.708H67.35v-5.708H53.766zm-8.219 13.584v.171h13.755v-5.708H45.547v5.537zm16.094 0v.171h13.755v-5.708H61.641v5.537zm16.095 0v.171H91.49v-5.708H77.736v5.537z" fill="#4E4E4E" stroke="#fff" stroke-width=".343"/></svg>