<svg width="87" height="83" fill="none" xmlns="http://www.w3.org/2000/svg"><circle opacity=".3" cx="22.107" cy="22.121" r="21.706" fill="#FEDA22"/><path d="M62.46 27.776a1.017 1.017 0 110 2.034H47.692a1.017 1.017 0 010-2.034H62.46zM42.257 42.202l-.048.048v7.037a2.966 2.966 0 01-2.962 2.962h-7.002a2.966 2.966 0 01-2.962-2.932v-7.032a2.966 2.966 0 012.962-2.963h7.002c.773 0 1.476.3 2.005.788l.115.107.11-.111.438-.438h0a1.016 1.016 0 011.438 0h0c.397.397.397 1.04 0 1.438l-1.096 1.096zm-10.941.083v.162h0v6.84a.93.93 0 00.929.928h7.002a.93.93 0 00.929-.929v-5.003l-.278.278-3.115 3.115h0a1.013 1.013 0 01-1.438 0h0l-1.67-1.67h0a1.017 1.017 0 010-1.438h0a1.017 1.017 0 011.438 0l.836.836.115.115.115-.115 3.627-3.627.135-.135-.156-.112a.923.923 0 00-.538-.175h-7.002a.93.93 0 00-.93.93zm15.359 3.501c0-.562.456-1.017 1.017-1.017h5.396a1.017 1.017 0 110 2.034h-5.396a1.017 1.017 0 01-1.017-1.017zm-14.43 23.455a2.966 2.966 0 01-2.962-2.962v-7.002a2.966 2.966 0 012.962-2.962h7.002a2.966 2.966 0 012.962 2.962v7.002a2.966 2.966 0 01-2.962 2.962h-7.002zm0-10.893a.93.93 0 00-.93.929v7.001a.93.93 0 00.93.93h7.002a.93.93 0 00.929-.93v-7.001a.93.93 0 00-.93-.93h-7.001z" fill="#4E4E4E" stroke="#fff" stroke-width=".326"/><path d="M79.802 34.718l-.115-.115-3.819-3.82-.115-.114.115-.116 3.485-3.484c.98-.982 2.837-1.205 4.047 0h0c.906.908 1.275 2.788.002 4.049l-3.6 3.6zm0 0l.115-.115 3.484-3.485-3.599 3.6zm6.473-5.623v.002c.015 1.28-.65 2.718-1.431 3.456l-.298.281h.016L72.675 44.721l-.047.048v29.897a2.497 2.497 0 01-2.494 2.494H25.403a2.496 2.496 0 01-2.494-2.494V13.374a1.017 1.017 0 012.034 0v61.292c0 .254.206.46.46.46h44.73a.46.46 0 00.46-.46V46.802l-.277.278-12.559 12.56h0l-.005.005c-1.065 1.17-2.64 2.172-4.042 2.529h0-.003l-5.734 1.582c-.34.048-.581.015-.753-.057a.727.727 0 01-.361-.321c-.157-.276-.163-.64-.143-.885l1.58-5.728v-.002c.506-1.738 1.416-2.997 2.535-4.046h0l.003-.004L70.547 33l.047-.048V8.827H65.53v2.623h0v.006c.053 1.466-.695 2.797-1.798 3.69-1.104.896-2.544 1.337-3.852 1.046h0l-.006-.002-10.907-1.938h0a6.898 6.898 0 00-2.42 0l.028.161-.028-.16-10.882 1.936h0-.003c-2.94.574-5.721-1.964-5.654-4.736h0V8.827h-7.105a2.663 2.663 0 00-2.66 2.66v65.68a2.663 2.663 0 002.66 2.66h49.731a2.663 2.663 0 002.66-2.66V45.785a1.017 1.017 0 112.034 0v31.382a4.7 4.7 0 01-4.694 4.693h-49.73a4.7 4.7 0 01-4.694-4.693v-65.68a4.7 4.7 0 014.693-4.693H34.29v-2.48a2.651 2.651 0 012.648-2.649H58.6a2.651 2.651 0 012.648 2.649v2.48h11.385a4.7 4.7 0 014.693 4.694v14.785l.288-.342c1.858-2.21 5.408-2.227 7.222-.304h0l.003.004c1 .998 1.432 2.36 1.436 3.464zM59.051 6.794h.163v-2.48a.615.615 0 00-.615-.615H36.937a.615.615 0 00-.615.615v2.48H59.05zM32.203 8.828h-.163v2.621c-.006.915.446 1.672 1.077 2.162.629.488 1.447.72 2.192.575h.002l10.879-1.935a8.934 8.934 0 013.132 0l10.905 1.937s0 0 0 0c.9.166 1.725-.147 2.318-.682.59-.533.962-1.298.95-2.057V8.828H32.203zm24.72 48.54l.116.115.115-.115L78.249 36.27l.116-.115-.115-.115-3.82-3.82-.115-.114-.115.115-21.095 21.097-.115.115.115.115 3.819 3.819zM72.8 8.836l-.172-.011v22.094l.277-.278 2.34-2.34.048-.049V11.488A2.661 2.661 0 0072.8 8.836zM50.264 57.283l-.005.01-.002.01-1.032 3.743-.078.283.281-.084c.275-.082.645-.179 1.073-.291l.305-.08a46.746 46.746 0 001.786-.5 15.296 15.296 0 001.709-.617c.497-.222.924-.471 1.17-.751l.1-.115-.108-.108-3.775-3.776-.127-.127-.114.14c-.788.96-1.04 1.798-1.141 2.133a1.643 1.643 0 01-.042.13z" fill="#4E4E4E" stroke="#fff" stroke-width=".326"/><path d="M41.915 22.581h0a1.016 1.016 0 011.438 0h0a1.017 1.017 0 010 1.438h0l-1.1 1.1-.048.049.001.07.002.033v.003l.001.018v7.002a2.966 2.966 0 01-2.962 2.962h-7.002a2.966 2.966 0 01-2.962-2.962v-7.002a2.966 2.966 0 012.962-2.963h7.002c.75 0 1.435.284 1.958.746l.115.102.108-.108.487-.488zm-2.167 2.168l.148-.149-.18-.107a.92.92 0 00-.47-.13h-7.001a.93.93 0 00-.93.929v7.002a.93.93 0 00.93.929h7.002a.93.93 0 00.929-.93v-5.096l-.278.277-3.115 3.116h0a1.012 1.012 0 01-1.438 0h0l-1.67-1.67h0a1.017 1.017 0 010-1.438h0a1.017 1.017 0 011.438 0l.836.836.115.115.115-.115 3.569-3.57z" fill="#4E4E4E" stroke="#fff" stroke-width=".326"/></svg>