<svg width="92" height="82" fill="none" xmlns="http://www.w3.org/2000/svg"><circle opacity=".3" cx="22.68" cy="22.203" r="22.142" fill="#FEDA22"/><path d="M87.23 36.5l.006.16h.214a3.882 3.882 0 013.882 3.882v2.699a3.882 3.882 0 01-3.882 3.882H14.584a3.882 3.882 0 01-3.882-3.882v-2.699a3.882 3.882 0 013.882-3.882h.214l.006-.16A36.094 36.094 0 0138.99 3.653l.094-.033.015-.098A3.882 3.882 0 0142.92.227h16.192a3.882 3.882 0 013.822 3.295l.015.098.095.033A36.094 36.094 0 0187.23 36.5zM39.04 6.39v-.24l-.226.086a33.738 33.738 0 00-21.642 30.252l-.007.172H84.87l-.007-.172A33.739 33.739 0 0063.221 6.236l-.226-.087v23.598a1.183 1.183 0 01-2.366 0V4.11c0-.837-.679-1.515-1.516-1.515H52.2v29.852a1.183 1.183 0 01-2.366 0V2.594H42.92c-.837 0-1.516.678-1.516 1.515v25.638a1.183 1.183 0 01-2.366 0V6.391zm48.41 38.367c.837 0 1.516-.678 1.516-1.515v-2.699c0-.837-.679-1.515-1.516-1.515H14.584c-.837 0-1.515.678-1.515 1.515v2.699c0 .837.678 1.515 1.515 1.515H87.45zM26.728 59.6H44.27a1.183 1.183 0 010 2.366H26.728c-.837 0-1.515.679-1.515 1.515v5.398a1.183 1.183 0 01-2.367 0v-5.398a3.882 3.882 0 013.882-3.882z" fill="#4E4E4E" stroke="#fff" stroke-width=".332"/><path d="M84.454 59.467l.027.132h5.668c.653 0 1.183.53 1.183 1.184v10.795c0 .653-.53 1.183-1.183 1.183H84.5l-.02.142a9.28 9.28 0 01-9.174 7.954H67.21a17.472 17.472 0 01-14.928-8.475l-.001-.003a1.488 1.488 0 00-2.527 0l-.002.002a17.471 17.471 0 01-14.928 8.476H26.73a9.292 9.292 0 01-8.882-6.628l-.036-.119h-5.926c-.653 0-1.183-.53-1.183-1.183V62.132c0-.653.53-1.183 1.183-1.183h5.564v-.166a6.589 6.589 0 016.58-6.581h53.975a6.593 6.593 0 016.45 5.265zM17.283 71.744h.166v-4.38h-4.38v4.379h4.214zm0-6.747h.166v-1.682h-4.38v1.682h4.214zm64.936 6.58v0-10.794a4.214 4.214 0 00-4.215-4.214H24.03a4.214 4.214 0 00-4.215 4.214v10.795a6.921 6.921 0 006.913 6.913h8.097a15.095 15.095 0 0012.89-7.323c.324-.534.77-.98 1.305-1.303l-.086-.143.086.142a3.855 3.855 0 015.293 1.304 15.095 15.095 0 0012.896 7.323h8.097a6.921 6.921 0 006.913-6.913zm6.58-1.183h.167v-4.38h-4.381v4.38H88.8zm0-6.746h.167v-1.682h-4.381v1.682H88.8z" fill="#4E4E4E" stroke="#fff" stroke-width=".332"/><path d="M49.668 59.6h2.698a1.183 1.183 0 010 2.366h-2.698a1.183 1.183 0 010-2.367z" fill="#4E4E4E" stroke="#fff" stroke-width=".332"/></svg>