<svg width="91" height="83" fill="none" xmlns="http://www.w3.org/2000/svg"><circle opacity=".3" cx="22.342" cy="22.13" r="22.101" fill="#FEDA22"/><mask id="a" fill="#fff"><path d="M67.584 27.88c.476.108.837.496.912.978a19.431 19.431 0 010 5.925 1.19 1.19 0 01-.912.98l-2.784.635a15.864 15.864 0 01-1.245 3.004l1.518 2.417c.26.413.241.943-.047 1.337a19.289 19.289 0 01-4.19 4.19 1.192 1.192 0 01-1.337.048l-2.417-1.519c-.957.517-1.962.934-3.004 1.245l-.635 2.784a1.191 1.191 0 01-.98.912 19.431 19.431 0 01-5.925 0 1.191 1.191 0 01-.979-.912l-.636-2.784a15.877 15.877 0 01-3.003-1.245l-2.417 1.519a1.19 1.19 0 01-1.337-.048 19.294 19.294 0 01-4.19-4.19 1.192 1.192 0 01-.048-1.337l1.519-2.417a15.846 15.846 0 01-1.245-3.004l-2.784-.635a1.192 1.192 0 01-.913-.98 19.44 19.44 0 010-5.924c.075-.483.437-.871.913-.98l2.784-.635c.31-1.042.728-2.047 1.245-3.004l-1.519-2.417a1.191 1.191 0 01.048-1.337 19.292 19.292 0 014.19-4.19 1.192 1.192 0 011.337-.048l2.417 1.519a15.863 15.863 0 013.003-1.245l.636-2.784a1.19 1.19 0 01.98-.912 19.49 19.49 0 015.924 0c.483.074.871.436.98.912l.635 2.784c1.041.311 2.047.728 3.004 1.245l2.417-1.518a1.19 1.19 0 011.337.047 19.298 19.298 0 014.19 4.19c.288.394.307.924.047 1.337l-1.518 2.417c.517.957.934 1.963 1.245 3.004l2.784.635zm-4.901.654a13.49 13.49 0 00-1.537-3.709 1.191 1.191 0 01.012-1.248l1.457-2.32a16.908 16.908 0 00-2.55-2.55l-2.32 1.457c-.38.24-.863.244-1.248.012a13.497 13.497 0 00-3.709-1.537 1.192 1.192 0 01-.874-.891l-.61-2.671a17.075 17.075 0 00-3.606 0l-.61 2.67c-.1.44-.438.784-.874.892a13.494 13.494 0 00-3.71 1.537 1.192 1.192 0 01-1.247-.012l-2.32-1.457a16.914 16.914 0 00-2.55 2.55l1.457 2.32c.24.38.244.863.012 1.248a13.492 13.492 0 00-1.537 3.709 1.191 1.191 0 01-.892.874l-2.67.61a17.111 17.111 0 000 3.606l2.67.61c.439.1.783.438.892.874a13.487 13.487 0 001.537 3.709 1.19 1.19 0 01-.012 1.248l-1.457 2.32a16.913 16.913 0 002.55 2.55l2.32-1.457c.38-.24.863-.244 1.248-.012a13.484 13.484 0 003.709 1.537c.436.108.774.453.874.891l.61 2.671c1.196.127 2.41.127 3.606 0l.61-2.671c.1-.438.438-.783.874-.891a13.487 13.487 0 003.709-1.537 1.192 1.192 0 011.248.012l2.32 1.457a16.902 16.902 0 002.55-2.55l-1.458-2.32a1.191 1.191 0 01-.011-1.248 13.491 13.491 0 001.537-3.709c.108-.436.453-.774.89-.874l2.672-.61a16.997 16.997 0 000-3.606l-2.671-.61a1.192 1.192 0 01-.891-.874z"/></mask><path d="M67.584 27.88c.476.108.837.496.912.978a19.431 19.431 0 010 5.925 1.19 1.19 0 01-.912.98l-2.784.635a15.864 15.864 0 01-1.245 3.004l1.518 2.417c.26.413.241.943-.047 1.337a19.289 19.289 0 01-4.19 4.19 1.192 1.192 0 01-1.337.048l-2.417-1.519c-.957.517-1.962.934-3.004 1.245l-.635 2.784a1.191 1.191 0 01-.98.912 19.431 19.431 0 01-5.925 0 1.191 1.191 0 01-.979-.912l-.636-2.784a15.877 15.877 0 01-3.003-1.245l-2.417 1.519a1.19 1.19 0 01-1.337-.048 19.294 19.294 0 01-4.19-4.19 1.192 1.192 0 01-.048-1.337l1.519-2.417a15.846 15.846 0 01-1.245-3.004l-2.784-.635a1.192 1.192 0 01-.913-.98 19.44 19.44 0 010-5.924c.075-.483.437-.871.913-.98l2.784-.635c.31-1.042.728-2.047 1.245-3.004l-1.519-2.417a1.191 1.191 0 01.048-1.337 19.292 19.292 0 014.19-4.19 1.192 1.192 0 011.337-.048l2.417 1.519a15.863 15.863 0 013.003-1.245l.636-2.784a1.19 1.19 0 01.98-.912 19.49 19.49 0 015.924 0c.483.074.871.436.98.912l.635 2.784c1.041.311 2.047.728 3.004 1.245l2.417-1.518a1.19 1.19 0 011.337.047 19.298 19.298 0 014.19 4.19c.288.394.307.924.047 1.337l-1.518 2.417c.517.957.934 1.963 1.245 3.004l2.784.635zm-4.901.654a13.49 13.49 0 00-1.537-3.709 1.191 1.191 0 01.012-1.248l1.457-2.32a16.908 16.908 0 00-2.55-2.55l-2.32 1.457c-.38.24-.863.244-1.248.012a13.497 13.497 0 00-3.709-1.537 1.192 1.192 0 01-.874-.891l-.61-2.671a17.075 17.075 0 00-3.606 0l-.61 2.67c-.1.44-.438.784-.874.892a13.494 13.494 0 00-3.71 1.537 1.192 1.192 0 01-1.247-.012l-2.32-1.457a16.914 16.914 0 00-2.55 2.55l1.457 2.32c.24.38.244.863.012 1.248a13.492 13.492 0 00-1.537 3.709 1.191 1.191 0 01-.892.874l-2.67.61a17.111 17.111 0 000 3.606l2.67.61c.439.1.783.438.892.874a13.487 13.487 0 001.537 3.709 1.19 1.19 0 01-.012 1.248l-1.457 2.32a16.913 16.913 0 002.55 2.55l2.32-1.457c.38-.24.863-.244 1.248-.012a13.484 13.484 0 003.709 1.537c.436.108.774.453.874.891l.61 2.671c1.196.127 2.41.127 3.606 0l.61-2.671c.1-.438.438-.783.874-.891a13.487 13.487 0 003.709-1.537 1.192 1.192 0 011.248.012l2.32 1.457a16.902 16.902 0 002.55-2.55l-1.458-2.32a1.191 1.191 0 01-.011-1.248 13.491 13.491 0 001.537-3.709c.108-.436.453-.774.89-.874l2.672-.61a16.997 16.997 0 000-3.606l-2.671-.61a1.192 1.192 0 01-.891-.874z" fill="#4E4E4E" stroke="#fff" stroke-width=".663" mask="url(#a)"/><path d="M39.976 31.82c0 5.253 4.273 9.526 9.525 9.526 5.252 0 9.525-4.273 9.525-9.525 0-5.252-4.273-9.526-9.525-9.526-5.252 0-9.525 4.274-9.525 9.526zm2.051 0c0-4.12 3.353-7.473 7.474-7.473s7.474 3.353 7.474 7.474c0 4.12-3.353 7.473-7.474 7.473s-7.474-3.352-7.474-7.473z" fill="#4E4E4E" stroke="#fff" stroke-width=".332"/><path d="M46.092 31.82c0 1.88 1.53 3.41 3.409 3.41 1.88 0 3.409-1.53 3.409-3.41a3.413 3.413 0 00-3.41-3.408 3.413 3.413 0 00-3.408 3.409zm2.052 0a1.359 1.359 0 012.714 0 1.359 1.359 0 01-2.714 0z" fill="#4E4E4E" stroke="#fff" stroke-width=".332"/><path d="M23.294 58.359v-48.31H10.023c-.567 0-1.026-.46-1.026-1.026 0-4.507 3.668-8.175 8.175-8.175h50.361c4.508 0 8.175 3.668 8.175 8.175V54.62a1.026 1.026 0 11-2.051 0V9.023A6.13 6.13 0 0067.532 2.9H22.594l.29.284a8.149 8.149 0 012.462 5.84v49.335h49.336c.033 0 .067.002.101.005h0c.016.001.025.004.054.008m-51.543-.013l51.543.013m-51.543-.013h-.165.165zm51.543.013a.443.443 0 00.029.004l.013.002h.002l.005.001.022.005.08.015.305.06 1.082.212 3.279.644 3.276.643 1.079.211.302.06.08.015.02.004.006.001h.001l.032-.162m-9.613-1.715l9.613 1.715m0 0l-.032.163m.032-.163l-.032.163m0 0h.003l.006.001.024.005.09.018.323.063.975.191.974.192.32.063.09.017.024.005.006.001h.002l.032-.162-.032.162a3.415 3.415 0 012.75 3.345 3.414 3.414 0 01-2.75 3.344l-2.83.555h0l-4.769.936-3.275.642-1.08.212-.302.06-.08.015-.02.004-.005.001h-.001 0l.031.163-.032-.162h0a.5.5 0 01-.027.004l-.012.002-.015.002h-.001l9.581-9.68zM11.333 7.998h-.203l.04-.2A6.134 6.134 0 0117.172 2.9a6.134 6.134 0 016 4.899l.041.199h-11.88zm76.335 66.71h.203l-.04.2a6.134 6.134 0 01-6 4.898H36.895l.29-.284a8.16 8.16 0 002.376-4.671l.02-.142h48.087zM25.512 63.125h-.166V60.41H73.52l-.079.222a3.746 3.746 0 01-3.526 2.493H25.512zm50.222 4.54l-.155.03-.038-.153a5.805 5.805 0 00-2.155-3.259l-.176-.132.176-.133a5.807 5.807 0 002.155-3.258l.038-.154.155.03 7.32 1.437.134.026v4.103l-.134.026-7.32 1.437zm9.505-4.962v-.201l.198.038 1.423.28a1.358 1.358 0 010 2.662l-1.423.279-.198.039v-3.097zM73.441 67.67l.079.22H25.346v-2.714h44.569a3.746 3.746 0 013.526 2.494zM23.13 60.41h.165v7.481H20.58V60.41h2.549zm-4.6 7.315v.166h-3.741a3.744 3.744 0 01-3.74-3.74 3.744 3.744 0 013.74-3.74h3.741v7.315z" fill="#4E4E4E" stroke="#fff" stroke-width=".332"/></svg>