<svg width="43" height="44" fill="none" xmlns="http://www.w3.org/2000/svg"><path d="M35.65 14.916a7.731 7.731 0 00-7.598-13.469 7.732 7.732 0 00-2.55 2.296l-.004.003-.007.011a7.71 7.71 0 002.482 11.157 11.095 11.095 0 00-3.813 2.372 7.597 7.597 0 00-5.329 0 11.097 11.097 0 00-3.813-2.372 7.738 7.738 0 10-7.677.003A11.186 11.186 0 000 25.402v.86a.86.86 0 00.86.86h13.349a7.769 7.769 0 003.45 4.131 11.186 11.186 0 00-7.341 10.485v.86a.859.859 0 00.86.86h20.636a.859.859 0 00.86-.86v-.86a11.186 11.186 0 00-7.342-10.485 7.77 7.77 0 003.45-4.132h13.35a.859.859 0 00.86-.86v-.86a11.187 11.187 0 00-7.342-10.485zm-3.836-12.73a6.028 6.028 0 015.765 4.3H33.88a10.56 10.56 0 01-6.553-2.279 5.998 5.998 0 014.486-2.02zm-6.02 6.019c.002-.884.2-1.757.579-2.556a12.278 12.278 0 007.507 2.556h3.952a6.02 6.02 0 01-12.037 0zm-4.298 10.318a6.027 6.027 0 015.564 3.73 10.612 10.612 0 01-2.11-.97.86.86 0 00-.89 0 10.59 10.59 0 01-5.49 1.54h-2.84a6.027 6.027 0 015.766-4.3zM11.178 2.186a6.028 6.028 0 015.765 4.3h-1.614a5.046 5.046 0 01-3.543-1.468.86.86 0 00-1.216 0 5.046 5.046 0 01-3.544 1.467H5.412a6.028 6.028 0 015.766-4.299zm-6.02 6.019h1.868a6.785 6.785 0 004.152-1.434 6.786 6.786 0 004.151 1.434h1.867a6.019 6.019 0 11-12.037 0zm8.65 17.197H1.72a9.469 9.469 0 019.458-9.459 9.34 9.34 0 016.01 2.173 7.69 7.69 0 00-3.38 7.286zm17.146 16.336H12.038a9.458 9.458 0 1118.916 0zm-9.458-11.177a6.026 6.026 0 01-6.02-6.02h3.093a12.31 12.31 0 005.936-1.53c.942.517 1.947.908 2.99 1.163.008.122.02.244.02.368a6.026 6.026 0 01-6.02 6.018zm7.687-5.16a7.69 7.69 0 00-3.38-7.285 9.34 9.34 0 016.01-2.172 9.469 9.469 0 019.459 9.458H29.183z" fill="#4E4E4E"/></svg>