<svg width="53" height="44" fill="none" xmlns="http://www.w3.org/2000/svg"><path d="M51.398 33.698h-7.283v-6.803h7.283c.659 0 1.195-.536 1.195-1.195v-7.484c0-.659-.536-1.195-1.195-1.195h-7.283V9.877c0-.659-.536-1.195-1.194-1.195h-7.28V1.54c0-.66-.535-1.195-1.194-1.195h-3.999a.767.767 0 100 1.535h3.659v6.804h-15.42V1.879H32.47a.768.768 0 100-1.535H1.392C.734.344.198.88.198 1.539v7.83a.805.805 0 00-.005.081v8.339c0 .027.002.054.005.08v8.178a.771.771 0 00-.005.08v5.788a.768.768 0 001.535 0v-5.02h6.943v6.803H1.729v-1.772a.768.768 0 00-1.536 0v2.54c0 .027.002.054.005.08v7.831c0 .66.536 1.195 1.194 1.195h50.006c.659 0 1.195-.536 1.195-1.195v-7.484c0-.659-.536-1.195-1.195-1.195zm-8.05-15.142h7.71v6.804H35.641v-6.804h7.706zM27.16 10.218h15.42v6.803H27.16v-6.803zm6.942 8.338v6.804H18.687v-6.804h15.416zm-8.478-8.338v6.803H10.206v-6.803h15.42zM1.733 1.879h15.419v6.804H1.733V1.879zm-.005 8.339h6.943v6.803H1.729v-6.803zm.005 15.142v-6.804h15.419v6.804H1.733zm15.419 16.677H1.732v-6.803h15.421v6.803zm.768-8.339h-7.714v-6.803h15.419v6.803H17.92zm16.183 8.339H18.687v-6.803h15.416v6.803zm.771-8.339h-7.713v-6.803H42.58v6.803h-7.706zm16.183 8.339H35.642v-6.803h15.416v6.803z" fill="#4E4E4E"/></svg>