<svg width="44" height="44" fill="none" xmlns="http://www.w3.org/2000/svg"><path d="M41.503 8.269h.72V6.828h-2.16V5.387h.72v-1.44H29.976V1.784h.72V.344H13.405v1.44h.72v2.162H3.318v1.441h.72v1.441h-2.16v1.44h.72v33.863H.437v1.44h43.228v-1.44h-2.162V8.269zM14.125 42.13H4.04V8.269h10.086V42.13zm0-35.303H5.48v-1.44h8.645v1.441zM21.33 42.13h-1.44v-1.44h1.44v1.44zm2.882 0h-1.44v-1.44h1.44v1.44zm4.323-37.464V42.13h-2.882v-2.162a.72.72 0 00-.72-.72h-5.764a.72.72 0 00-.72.72v2.162h-2.883V1.785h12.969v2.882zm1.44.72h8.646v1.441h-8.645v-1.44zM40.062 42.13H29.976V8.269h10.086V42.13z" fill="#4E4E4E"/><path stroke="#4E4E4E" d="M9.085 42.488V8.155m26.168 34.333V8.155M22.169 42.488V.344"/></svg>