<svg width="55" height="45" fill="none" xmlns="http://www.w3.org/2000/svg"><path d="M54.03 42.268l-.036-.818a.757.757 0 10-1.513.066l.036.825v.014a.541.541 0 01-.542.58h-4.43V28.96l1.143.403c1.968.696 3.534 2.492 3.67 4.578l.125 7.029a.756.756 0 101.513-.067l-.126-7.036v-.015c-.172-2.695-2.134-5.018-4.678-5.916l-2.114-.748c-.013-.005-.025-.012-.037-.016l-6.316-2.232a.915.915 0 00-.074-.022c-.012-.004-.024-.006-.036-.008a1.235 1.235 0 00-1.179.32l-.195.196-1.666-.837v-1.46c.503-.347.977-.76 1.408-1.222l.015-.017c1.088-1.17 1.89-2.645 2.163-4.11a6.567 6.567 0 00.067-.437l.006-.048a5.73 5.73 0 00.019-.217h.314c.976 0 1.77-.794 1.77-1.77v-1.984c0-.094-.008-.187-.023-.279.112-.202.176-.435.176-.684v-.845c0-.644-.427-1.188-1.01-1.356v-.119c0-.072 0-.144-.002-.216a8.077 8.077 0 00-2.232-5.385 7.894 7.894 0 00-4.707-2.395 2.261 2.261 0 00-.087-.143l-.024-.035a2.163 2.163 0 00-.098-.13l-.018-.022a2.05 2.05 0 00-.133-.147l-.005-.004a2.173 2.173 0 00-.142-.13l-.016-.013a2.182 2.182 0 00-.324-.22l-.03-.017a2.186 2.186 0 00-.175-.084l-.01-.003a2.137 2.137 0 00-.398-.124l-.01-.002a2.187 2.187 0 00-.43-.043h-.715a2.178 2.178 0 00-.43.043l-.01.002a2.188 2.188 0 00-.4.124l-.01.003a2.784 2.784 0 00-.174.084l-.03.017a2.184 2.184 0 00-.324.22l-.017.014a2.19 2.19 0 00-.142.128l-.005.005c-.046.047-.09.096-.132.146l-.018.023a2.158 2.158 0 00-.098.13c-.008.012-.017.023-.024.035-.031.047-.06.094-.088.143a7.895 7.895 0 00-4.706 2.394 8.057 8.057 0 00-1.587 2.412l-4.386-4.108a2.345 2.345 0 00-3.206.004L12.38 7.228l-.001-.524c0-.3-.118-.583-.33-.795a1.117 1.117 0 00-.794-.328h-.002l-3.567.005a1.125 1.125 0 00-1.122 1.126l.01 5.985-5.011 4.72a2.326 2.326 0 00-.735 1.635c-.019.625.207 1.22.636 1.675a2.326 2.326 0 001.706.736c.599 0 1.166-.225 1.603-.637l1.697-1.599.008 11.544a.757.757 0 001.514-.002l-.01-12.966 10.765-10.14 4.324 4.05v.647a1.447 1.447 0 00.176.687c-.015.09-.023.183-.023.276v1.984c0 .976.794 1.77 1.77 1.77h.314c.005.075.011.15.019.225l.008.064a6.112 6.112 0 00.125.714l.012.052a7.048 7.048 0 00.058.224 7.879 7.879 0 00.569 1.453c.094.186.196.37.304.551l.043.072a8.754 8.754 0 00.159.25c.026.04.052.08.08.12.047.07.097.14.147.21l.065.088.113.151.063.081c.053.067.106.133.16.198l.023.028c.06.07.12.14.182.21l.066.072c.043.048.087.095.132.142l.074.078a9.21 9.21 0 00.281.276l.102.094a8.094 8.094 0 00.192.17c.226.195.46.377.702.543v1.445l-1.666.837-.196-.196a1.231 1.231 0 00-1.173-.322l-.044.01a.921.921 0 00-.072.021l-2.842 1.005-.008-5.385a1.262 1.262 0 00-1.26-1.259h-.002l-5.922.009c-.337 0-.653.131-.89.37a1.252 1.252 0 00-.369.892l.013 9.267-.003.004-.06.07c-.032.038-.065.076-.096.115l-.058.073-.091.117c-.02.025-.037.05-.056.076-.029.04-.058.079-.086.12-.019.025-.036.052-.053.078-.028.04-.056.08-.083.122l-.05.08c-.026.042-.053.083-.078.125l-.047.082c-.025.043-.05.085-.073.128l-.046.086c-.023.043-.046.085-.067.128-.016.03-.03.061-.045.092-.02.042-.041.084-.06.127l-.043.095-.056.128-.038.098a3.406 3.406 0 00-.051.128l-.037.103-.045.128-.033.105-.04.129-.03.108-.035.13c-.01.035-.018.072-.026.109l-.03.13a2.3 2.3 0 00-.023.114l-.026.13-.018.118c-.007.042-.015.085-.02.128-.006.04-.01.08-.015.122l-.016.126-.01.124c-.004.04-.008.078-.01.116l-4.866.007a.03.03 0 01-.03-.03l-.007-4.568a.757.757 0 00-.757-.756H7.24a.757.757 0 00-.757.758l.007 4.567a1.547 1.547 0 001.545 1.543h.002l4.797-.006-.303 6.924a2.069 2.069 0 00.554 1.532c.388.413.934.65 1.5.65h37.39c.565 0 1.112-.237 1.5-.65.385-.411.587-.97.553-1.532zM41.822 15.307a.256.256 0 01-.256.256h-.302v-1.794h.558v1.538zM32.279 2.949l.002-.008a.663.663 0 01.154-.284l.005-.006a.664.664 0 01.074-.067l.01-.007a.664.664 0 01.174-.095l.014-.005a.668.668 0 01.093-.024l.017-.003a.664.664 0 01.101-.008h.715c.035 0 .068.003.101.008.006 0 .012.002.017.003a.654.654 0 01.094.024l.014.005a.66.66 0 01.174.095l.01.007c.026.02.05.043.073.067l.006.006a.664.664 0 01.153.284l.003.007c.012.05.02.104.02.158V5.66a.665.665 0 01-.665.664h-.714a.665.665 0 01-.665-.664V3.106c0-.054.007-.107.02-.157zM10.865 7.096l.002 1.556-2.782 2.621L8.08 7.1l2.786-.004zm13.356 1.44a8.258 8.258 0 00-.041.234l-.019.132c-.01.072-.02.143-.028.215-.007.06-.011.12-.017.18-.005.057-.011.113-.015.17a8.18 8.18 0 00-.02.573v.12h-.005a1.397 1.397 0 00-.29.124c-.006.003-.012.005-.017.009L19.263 6.07a.757.757 0 00-1.037.002L3.736 19.724a.816.816 0 01-.593.225.822.822 0 01-.577-.26.822.822 0 01-.225-.592.822.822 0 01.26-.577L18.175 3.848a.825.825 0 011.133-.001l4.926 4.614-.013.076zm.773 7.027a.256.256 0 01-.256-.256v-1.538h.559v1.794h-.303zm-.408-3.544v-.399h.252a.757.757 0 00.757-.757v-.823a7 7 0 01.021-.524l.008-.088c.009-.089.018-.178.03-.266l.012-.087c.014-.093.03-.187.047-.28l.011-.063a6.77 6.77 0 01.078-.342 6.548 6.548 0 011.609-2.906 6.4 6.4 0 013.334-1.86V5.66a2.18 2.18 0 002.178 2.179h.715a2.181 2.181 0 002.179-2.179V3.625c1.26.26 2.42.903 3.334 1.86a6.565 6.565 0 011.815 4.555v.823c0 .418.34.757.758.757h.252v.4h-17.39zm2.254 5.183l-.004-.035a4.546 4.546 0 01-.017-.19l-.002-.03a3.948 3.948 0 01-.006-.216v-2.962h12.94v2.946c0 .072-.003.145-.007.219l-.002.025a4.295 4.295 0 01-.05.443c-.269 1.62-1.428 3.35-2.848 4.385l-.03.023-.137.094-.075.051-.04.026c-.046.03-.092.06-.139.088l-.007.004a4.72 4.72 0 01-1.3.56l-.08.02c-1.615.4-1.986.4-3.607-.009a4.71 4.71 0 01-1.288-.557l-.003-.002-.05-.031a6.024 6.024 0 01-.148-.095l-.036-.024c-1.568-1.06-2.86-2.984-3.064-4.733zm2.89 8.707a1.19 1.19 0 00.771-1.119v-.85c.185.067.37.125.558.172.93.235 1.557.352 2.184.352.62 0 1.242-.114 2.159-.342l.08-.02a5.61 5.61 0 00.578-.179v.867c0 .503.307.943.772 1.12l1.213.609c-.015.01-.029.023-.044.034l-.1.073a7.777 7.777 0 01-.503.336l-.103.063a7.9 7.9 0 01-.25.142l-.06.033a7.73 7.73 0 01-.316.159l-.087.04a7.745 7.745 0 01-.238.104c-.038.017-.077.032-.116.048a7.995 7.995 0 01-.57.203l-.11.034a7.77 7.77 0 01-.306.084l-.037.01a7.9 7.9 0 01-.349.078l-.101.019a7.874 7.874 0 01-.998.122l-.11.006a8.081 8.081 0 01-.732 0c-.037-.001-.074-.004-.11-.006a8.174 8.174 0 01-.254-.019l-.128-.013a8.15 8.15 0 01-.238-.029 7.618 7.618 0 01-.38-.061l-.1-.019a7.674 7.674 0 01-.35-.078l-.035-.01a7.86 7.86 0 01-.307-.084c-.037-.01-.073-.023-.11-.034a8.06 8.06 0 01-.57-.204l-.115-.046a7.71 7.71 0 01-.241-.107 7.784 7.784 0 01-.401-.198l-.056-.03a7.445 7.445 0 01-.254-.144 7.55 7.55 0 01-.607-.4c-.032-.024-.066-.047-.098-.072-.015-.01-.03-.023-.044-.034l1.213-.61zM14.586 42.935a.54.54 0 01-.542-.58v-.015l.368-8.4c.081-1.247.6-2.39 1.424-3.257l.024-.023a5.233 5.233 0 012.014-1.298l1.142-.403v13.976h-4.43zm4.898-15.748l-2.115.748c-.08.028-.158.057-.235.088l-.074.03a5.8 5.8 0 00-.057.024l-.1.042-.109.05c-.039.018-.079.036-.117.055-.037.017-.073.036-.109.055-.038.019-.076.037-.113.057l-.1.056c-.04.02-.078.041-.116.063l-.098.06-.072.043-.01-7.736 5.413-.008.008 5.664-1.96.693c-.012.004-.023.01-.036.016zm1.046 15.748V28.423l5.01-1.77.579 2.845a4.014 4.014 0 001.787 2.584l4.617 2.905v7.948H20.53zM28.712 30.8a2.493 2.493 0 01-1.11-1.605l-.357-1.756c.028.024.055.05.084.073a9.32 9.32 0 005.952 2.118c.61 0 1.21-.058 1.795-.17a9.273 9.273 0 004.24-2.021l-.357 1.756a2.491 2.491 0 01-1.11 1.605l-4.568 2.875-4.569-2.875zm17.32 12.135H34.037v-7.948l4.618-2.905a4.013 4.013 0 001.787-2.584l.58-2.845 5.008 1.77v14.512z" fill="#4E4E4E"/></svg>