<svg width="44" height="44" fill="none" xmlns="http://www.w3.org/2000/svg"><path d="M40.584 8.439H34.57V5A4.302 4.302 0 0030.272.704H13.084a4.302 4.302 0 00-4.297 4.297V8.44H2.772a2.581 2.581 0 00-2.579 2.578v8.594a.86.86 0 00.453.756l.407.22v20.508a2.58 2.58 0 002.578 2.578h36.094a2.581 2.581 0 002.578-2.578V20.587l.407-.22a.859.859 0 00.453-.756v-8.594a2.581 2.581 0 00-2.579-2.578zM10.506 5a2.581 2.581 0 012.578-2.578h17.188A2.58 2.58 0 0132.85 5v3.44H10.506V5zm30.078 36.094a.86.86 0 01-.859.86H3.631a.86.86 0 01-.86-.86V21.512l9.047 4.871a.857.857 0 00.407.103h.86v2.578a.86.86 0 00.858.86h4.297a.857.857 0 00.86-.86v-2.578h5.156v2.578a.858.858 0 00.86.86h4.296a.858.858 0 00.86-.86v-2.578h.86a.857.857 0 00.406-.103l9.046-4.871v19.583zm-25.781-12.89v-5.157h2.578v5.157h-2.578zm11.172 0v-5.157h2.578v5.157h-2.578zm15.469-9.107l-10.53 5.67h-.642v-2.58a.857.857 0 00-.86-.858h-4.297a.86.86 0 00-.859.859v2.578H19.1V22.19a.86.86 0 00-.86-.86h-4.296a.86.86 0 00-.86.86v2.578h-.643l-10.529-5.67v-8.08a.86.86 0 01.86-.86h37.812a.86.86 0 01.86.86v8.08z" fill="#4E4E4E"/></svg>