<svg width="44" height="44" fill="none" xmlns="http://www.w3.org/2000/svg"><path d="M35.953 14.647A7.733 7.733 0 1025.805 3.474l-.004.002-.007.012a7.714 7.714 0 002.482 11.157 11.098 11.098 0 00-3.813 2.372 7.597 7.597 0 00-5.33 0 11.097 11.097 0 00-3.812-2.372 7.738 7.738 0 10-7.677.002A11.186 11.186 0 00.303 25.132v.86a.86.86 0 00.86.86H14.51a7.77 7.77 0 003.45 4.132 11.187 11.187 0 00-7.34 10.485v.86a.86.86 0 00.86.86h20.635a.859.859 0 00.86-.86v-.86a11.186 11.186 0 00-7.341-10.485 7.769 7.769 0 003.45-4.132h13.35a.859.859 0 00.859-.86v-.86a11.186 11.186 0 00-7.341-10.485zm-3.837-12.73a6.028 6.028 0 015.766 4.3h-3.7c-2.378 0-4.687-.803-6.552-2.279a6 6 0 014.486-2.021zm-6.018 6.019a5.971 5.971 0 01.578-2.557 12.278 12.278 0 007.507 2.557h3.952a6.019 6.019 0 01-12.037 0zm-4.3 10.318a6.026 6.026 0 015.565 3.73 10.614 10.614 0 01-2.11-.971.86.86 0 00-.891 0 10.59 10.59 0 01-5.49 1.54h-2.839a6.028 6.028 0 015.765-4.3zM11.481 1.917a6.028 6.028 0 015.765 4.3h-1.614a5.046 5.046 0 01-3.544-1.469.86.86 0 00-1.215 0 5.046 5.046 0 01-3.544 1.468H5.715a6.028 6.028 0 015.765-4.299zM5.46 7.936h1.87a6.786 6.786 0 004.151-1.434 6.786 6.786 0 004.152 1.434H17.5a6.019 6.019 0 01-12.037 0zm8.65 17.196H2.022a9.469 9.469 0 019.458-9.458 9.341 9.341 0 016.011 2.173 7.69 7.69 0 00-3.38 7.285zM31.256 41.47H12.34a9.458 9.458 0 0118.916 0zm-9.458-11.18a6.026 6.026 0 01-6.018-6.019h3.092a12.31 12.31 0 005.936-1.53 12.28 12.28 0 002.99 1.163c.008.122.02.243.02.367a6.026 6.026 0 01-6.02 6.02zm7.688-5.159a7.69 7.69 0 00-3.38-7.285 9.341 9.341 0 016.01-2.173 9.469 9.469 0 019.458 9.458H29.486z" fill="#4E4E4E"/></svg>