<svg width="102" height="102" fill="none" xmlns="http://www.w3.org/2000/svg"><g opacity=".7"><path d="M58.077 44.835l-9.444 8.92-4.533-4.663a1.306 1.306 0 10-1.873 1.82l5.436 5.581a1.33 1.33 0 001.848.04l10.387-9.799a1.305 1.305 0 00.053-1.847 1.337 1.337 0 00-1.874-.052z" fill="#FEDA22"/><path d="M58.077 44.835l-9.444 8.92-4.533-4.663a1.306 1.306 0 10-1.873 1.82l5.436 5.581a1.33 1.33 0 001.848.04l10.387-9.799a1.305 1.305 0 00.053-1.847 1.337 1.337 0 00-1.874-.052z" stroke="#FEDA22"/><path d="M51.07 31.107c-10.794 0-19.571 8.776-19.571 19.57s8.777 19.57 19.57 19.57c10.794 0 19.571-8.776 19.571-19.57s-8.777-19.57-19.57-19.57zm0 36.52c-9.353 0-16.951-7.61-16.951-16.95s7.598-16.95 16.95-16.95c9.362 0 16.951 7.589 16.951 16.95 0 9.361-7.589 16.95-16.95 16.95z" fill="#FEDA22"/><path d="M51.07 31.107c-10.794 0-19.571 8.776-19.571 19.57s8.777 19.57 19.57 19.57c10.794 0 19.571-8.776 19.571-19.57s-8.777-19.57-19.57-19.57zm0 36.52c-9.353 0-16.951-7.61-16.951-16.95s7.598-16.95 16.95-16.95c9.362 0 16.951 7.589 16.951 16.95 0 9.361-7.589 16.95-16.95 16.95z" stroke="#FEDA22"/><path d="M78.002 43.472l.432-7.767a1.307 1.307 0 00-.72-1.245l-6.917-3.497-3.497-6.917a1.33 1.33 0 00-1.245-.72l-7.78.42-6.485-4.285a1.31 1.31 0 00-1.441 0l-6.484 4.284-7.768-.432a1.305 1.305 0 00-1.244.72l-3.498 6.917-6.916 3.497a1.327 1.327 0 00-.72 1.245l.431 7.768-4.283 6.484a1.31 1.31 0 000 1.44l4.27 6.498-.432 7.768c-.03.521.253 1.01.72 1.244l6.917 3.498 3.498 6.916c.237.464.724.745 1.244.72l7.768-.432 6.484 4.284a1.275 1.275 0 001.441 0l6.484-4.284 7.768.433a1.31 1.31 0 001.245-.72l3.497-6.917 6.917-3.498c.463-.238.745-.724.72-1.244l-.432-7.768 4.283-6.484a1.31 1.31 0 000-1.441l-4.257-6.485zm-2.437 13.336a1.23 1.23 0 00-.209.799l.406 7.348-6.537 3.301c-.249.125-.45.328-.576.577l-3.301 6.536-7.349-.405a1.432 1.432 0 00-.799.209l-6.13 4.048-6.13-4.048a1.297 1.297 0 00-.721-.223h-.066l-7.349.407-3.3-6.537a1.29 1.29 0 00-.577-.576l-6.55-3.289.407-7.348c.01-.281-.063-.56-.21-.8l-4.048-6.13 4.048-6.13c.16-.234.234-.517.21-.8l-.407-7.348 6.537-3.301a1.29 1.29 0 00.576-.576l3.301-6.537 7.35.406c.28.01.558-.063.798-.21l6.13-4.047L57.2 26.18c.234.16.517.235.8.21l7.348-.406 3.301 6.537c.125.249.327.451.576.576l6.537 3.3-.406 7.35c-.01.28.063.559.21.799l4.047 6.13-4.048 6.13z" fill="#FEDA22"/><path d="M78.002 43.472l.432-7.767a1.307 1.307 0 00-.72-1.245l-6.917-3.497-3.497-6.917a1.33 1.33 0 00-1.245-.72l-7.78.42-6.485-4.285a1.31 1.31 0 00-1.441 0l-6.484 4.284-7.768-.432a1.305 1.305 0 00-1.244.72l-3.498 6.917-6.916 3.497a1.327 1.327 0 00-.72 1.245l.431 7.768-4.283 6.484a1.31 1.31 0 000 1.44l4.27 6.498-.432 7.768c-.03.521.253 1.01.72 1.244l6.917 3.498 3.498 6.916c.237.464.724.745 1.244.72l7.768-.432 6.484 4.284a1.275 1.275 0 001.441 0l6.484-4.284 7.768.433a1.31 1.31 0 001.245-.72l3.497-6.917 6.917-3.498c.463-.238.745-.724.72-1.244l-.432-7.768 4.283-6.484a1.31 1.31 0 000-1.441l-4.257-6.485zm-2.437 13.336a1.23 1.23 0 00-.209.799l.406 7.348-6.537 3.301c-.249.125-.45.328-.576.577l-3.301 6.536-7.349-.405a1.432 1.432 0 00-.799.209l-6.13 4.048-6.13-4.048a1.297 1.297 0 00-.721-.223h-.066l-7.349.407-3.3-6.537a1.29 1.29 0 00-.577-.576l-6.55-3.289.407-7.348c.01-.281-.063-.56-.21-.8l-4.048-6.13 4.048-6.13c.16-.234.234-.517.21-.8l-.407-7.348 6.537-3.301a1.29 1.29 0 00.576-.576l3.301-6.537 7.35.406c.28.01.558-.063.798-.21l6.13-4.047L57.2 26.18c.234.16.517.235.8.21l7.348-.406 3.301 6.537c.125.249.327.451.576.576l6.537 3.3-.406 7.35c-.01.28.063.559.21.799l4.047 6.13-4.048 6.13z" stroke="#FEDA22"/></g><circle opacity=".3" cx="51.063" cy="50.674" r="50.67" fill="#FEDA22"/></svg>