<svg width="102" height="102" fill="none" xmlns="http://www.w3.org/2000/svg"><path opacity=".7" d="M76.228 49.199l-2.295-.987v-1.57a22.6 22.6 0 00-15.142-21.41v-2.213a1.19 1.19 0 00-1.19-1.19H44.875a1.19 1.19 0 00-1.189 1.19v2.225a22.6 22.6 0 00-15.142 21.41v1.581l-2.271.964c-.44.186-.726.617-.726 1.094v6.245c0 .656.533 1.19 1.19 1.19h1.546v2.379a1.19 1.19 0 001.19 1.189h4.27a17.993 17.993 0 001.772 4.258l-3.022 3.021a1.189 1.189 0 000 1.677l5.056 5.055a1.189 1.189 0 001.677 0l3.02-3.02a17.97 17.97 0 004.247 1.772v4.27a1.19 1.19 0 001.19 1.189h7.136a1.19 1.19 0 001.19-1.19v-4.27c1.489-.405 2.92-1 4.258-1.772l3.021 3.021a1.189 1.189 0 001.677 0l5.055-5.055a1.189 1.189 0 000-1.677l-3.021-3.021a17.99 17.99 0 001.772-4.258h4.27a1.19 1.19 0 001.19-1.19v-2.379h1.546a1.19 1.19 0 001.19-1.189v-6.245a1.19 1.19 0 00-.738-1.094zM46.04 24.22h10.372v19.875H46.064L46.04 24.22zm25.823 34.696h-3.96a1.19 1.19 0 00-1.19.94 15.635 15.635 0 01-2.177 5.233 1.19 1.19 0 00.154 1.487l2.843 2.843-3.402 3.378-2.842-2.843a1.19 1.19 0 00-1.487-.155 15.644 15.644 0 01-5.234 2.177 1.19 1.19 0 00-.94 1.19v4.008h-4.757V73.13a1.189 1.189 0 00-.94-1.19 15.591 15.591 0 01-5.233-2.177 1.19 1.19 0 00-1.487.155l-2.843 2.843-3.366-3.366 2.843-2.843a1.19 1.19 0 00.154-1.487 15.65 15.65 0 01-2.212-5.21 1.19 1.19 0 00-1.19-.939h-3.96v-1.19h10.871c.652 5.374 5.537 9.202 10.911 8.549a9.8 9.8 0 008.549-8.549H71.85l.012 1.19zm-27.928-1.19h14.642a7.422 7.422 0 01-14.654 0h.012zm30.664-2.378H27.913v-4.27l2.295-.988c.44-.185.726-.617.726-1.094v-2.38a20.22 20.22 0 0112.751-18.852v17.52c0 .657.533 1.19 1.19 1.19h12.75a1.19 1.19 0 001.19-1.19v-17.52a20.22 20.22 0 0112.763 18.877v2.379c0 .477.285.908.725 1.094l2.295.987v4.247z" fill="#FEDA22"/><circle opacity=".3" cx="51.255" cy="50.674" r="50.67" fill="#FEDA22"/></svg>