<svg width="102" height="103" fill="none" xmlns="http://www.w3.org/2000/svg"><g opacity=".7" fill="#FEDA22"><path opacity=".7" d="M67.251 54.353L54.637 46.6a1.015 1.015 0 00-.37-.136l-5.649.55a1 1 0 00-1.147.803 1 1 0 00.803 1.148l5.486-.578 12.454 7.655c.44.271 1.044.14 1.337-.286a1.004 1.004 0 00-.3-1.402z"/><path opacity=".7" d="M84.737 52.558a.99.99 0 00-1.4-.048l-4.017 3.754-18.402-18.158 13.33-15.318a.99.99 0 00-1.354-1.446L58.811 37.365a1 1 0 00-.018 1.428L60.42 40.4l-.52.459-10.88-.937a.992.992 0 00-.495.085l-8.62 3.927a1.042 1.042 0 00-.077-.018l-4.959-.875.401-1.025a.99.99 0 00-.554-1.28l-15.851-6.341a.99.99 0 10-.736 1.84l14.938 5.975-8.803 22.496-5.436-1.926a.99.99 0 10-.662 1.868l6.34 2.245a1 1 0 001.254-.572l1.47-3.76 3.856 2.16-.426.69a4.166 4.166 0 001.357 5.725 4.186 4.186 0 003.468.415 4.18 4.18 0 001.927 2.914 4.186 4.186 0 003.468.415 4.18 4.18 0 001.928 2.914c1.036.64 2.31.79 3.468.416a4.18 4.18 0 001.928 2.914c1.505.929 3.498.79 4.855-.348.342-.286.637-.629.87-1.008l.677-1.095.556.341c1.508.927 3.5.784 4.855-.356a4.2 4.2 0 00.869-1.01 4.137 4.137 0 00.605-2.428c.315.076.637.116.962.116 1.439 0 2.8-.758 3.553-1.984a4.13 4.13 0 00.608-2.427c.314.075.635.116.959.116 1.439 0 2.8-.759 3.553-1.984a4.129 4.129 0 00.608-2.43 4.162 4.162 0 004.512-1.867 4.165 4.165 0 00-1.367-5.722l-.68-.417 2.278-2.379 2.13 2.101a1 1 0 001.372.019l4.71-4.403a.99.99 0 00.048-1.4zm-48.68 16.18a2.182 2.182 0 01-3 .71 2.182 2.182 0 01-.71-2.998l5.548-8.993a2.19 2.19 0 012.963-.733c1.05.62 1.34 2.06.71 3.082l-5.512 8.932zm5.395 3.33a2.182 2.182 0 01-3 .71 2.2 2.2 0 01-.71-3l4.44-7.194a2.19 2.19 0 012.962-.732c1.05.62 1.34 2.06.71 3.082l-4.402 7.134zm5.396 3.329a2.167 2.167 0 01-1.353.976 2.165 2.165 0 01-1.646-.266 2.2 2.2 0 01-.71-2.999l3.328-5.396a2.19 2.19 0 012.963-.732c1.05.62 1.34 2.06.71 3.082l-3.292 5.335zm7.578-.207l-2.182 3.536a2.2 2.2 0 01-3 .71 2.2 2.2 0 01-.71-2.999l2.22-3.597a2.19 2.19 0 012.962-.732c1.05.62 1.34 2.06.71 3.082zm18.047-17.631l-4.911-3.018a1.007 1.007 0 00-1.363.326c-.28.455-.13 1.082.326 1.362l7.316 4.496a2.182 2.182 0 01.716 2.998 2.182 2.182 0 01-2.998.716l-7.847-4.822a.99.99 0 10-1.037 1.688l6.046 3.715a2.2 2.2 0 01.716 2.998 2.2 2.2 0 01-2.998.716l-5.479-3.367a.99.99 0 00-1.037 1.688l3.679 2.26a2.2 2.2 0 01.716 2.999 2.2 2.2 0 01-2.998.715s-3.236-1.986-3.266-2a.99.99 0 00-.948 1.736l1.376.846a2.182 2.182 0 01.716 2.998 2.2 2.2 0 01-2.998.716l-.553-.34.465-.755c.596-.965.78-2.154.507-3.261a4.09 4.09 0 00-4.276-3.13 4.294 4.294 0 00-.01-1.998 4.09 4.09 0 00-1.894-2.567 4.121 4.121 0 00-2.382-.562c.409-1.755-.343-3.643-1.904-4.566a4.124 4.124 0 00-2.382-.562c.409-1.755-.343-3.643-1.904-4.566-1.937-1.145-4.475-.518-5.657 1.398l-4.082 6.616-4.168-2.335 6.173-15.775 3.36.593a4.165 4.165 0 00-.55 4.338 4.166 4.166 0 005.51 2.062l5.802-2.642a1 1 0 00.491-1.312 1 1 0 00-1.312-.491l-5.802 2.642a2.182 2.182 0 01-2.886-1.08 2.182 2.182 0 011.08-2.887l9.283-4.228 11.044.951a.992.992 0 00.74-.244l.94-.83 13.233 13.055-2.593 2.71z"/><circle opacity=".3" cx="51.255" cy="51.405" r="50.67"/></g></svg>