<svg width="103" height="102" fill="none" xmlns="http://www.w3.org/2000/svg"><g opacity=".7" fill="#FEDA22"><path d="M71.722 79.566H43.06a5.978 5.978 0 01-5.972-5.971V37.768a5.978 5.978 0 015.971-5.971h28.662a5.978 5.978 0 015.971 5.971v35.827a5.978 5.978 0 01-5.971 5.97zM43.06 34.186a3.587 3.587 0 00-3.583 3.582v35.827a3.587 3.587 0 003.582 3.582h28.662a3.587 3.587 0 003.583-3.582V37.768a3.587 3.587 0 00-3.583-3.583H43.06z"/><path d="M33.506 72.4h-2.388a5.978 5.978 0 01-5.971-5.97V28.214a5.978 5.978 0 015.97-5.97H59.78a5.978 5.978 0 015.971 5.97 1.195 1.195 0 01-2.388 0 3.587 3.587 0 00-3.583-3.582H31.118a3.587 3.587 0 00-3.583 3.582V66.43a3.587 3.587 0 003.583 3.582h2.388a1.195 1.195 0 010 2.389zm33.438-9.553H47.836a1.195 1.195 0 010-2.389h19.108a1.195 1.195 0 010 2.389zm0 9.553H47.836a1.195 1.195 0 010-2.388h19.108a1.195 1.195 0 010 2.389z"/><path d="M66.944 53.293H47.836a1.195 1.195 0 010-2.389h19.108a1.195 1.195 0 010 2.389zm0-9.553H47.836a1.195 1.195 0 010-2.39h19.108a1.195 1.195 0 010 2.39z"/></g><circle opacity=".3" cx="51.42" cy="50.905" r="50.67" fill="#FEDA22"/></svg>