<svg width="103" height="103" fill="none" xmlns="http://www.w3.org/2000/svg"><path opacity=".7" d="M31.64 54.352h0c3.247 3.918 8.1 8.058 13.832 12.943l.006.005.009.008h0a733.388 733.388 0 015.967 5.124 854.024 854.024 0 015.986-5.134c5.734-4.887 10.587-9.027 13.835-12.946 3.327-4.015 4.73-7.479 4.73-11.3 0-3.68-1.237-7-3.429-9.377-2.154-2.337-5.112-3.625-8.349-3.625-2.345 0-4.493.74-6.408 2.222-1.723 1.332-2.941 3.035-3.665 4.248l-.859-.513.86.513a3.123 3.123 0 01-2.698 1.531 3.123 3.123 0 01-2.697-1.531h0c-.723-1.213-1.941-2.916-3.665-4.248-1.915-1.481-4.063-2.222-6.407-2.222-3.237 0-6.195 1.288-8.35 3.625l1.302 20.677zm0 0c-3.328-4.015-4.73-7.479-4.73-11.3 0-3.68 1.236-7 3.428-9.377l1.302 20.677zm10.343 17.051h0l.008.007a669.569 669.569 0 016.57 5.651 4.394 4.394 0 005.791.002 661.983 661.983 0 016.584-5.663h0l.06-.05c5.782-4.929 10.87-9.265 14.429-13.56 4.026-4.857 5.97-9.555 5.97-14.737 0-4.982-1.71-9.619-4.856-13.032h0c-3.188-3.457-7.567-5.361-12.312-5.361-3.567 0-6.84 1.132-9.705 3.348A19.108 19.108 0 0051.457 31a19.112 19.112 0 00-3.064-2.993h0c-2.865-2.216-6.139-3.348-9.705-3.348-4.746 0-9.124 1.904-12.312 5.361h0c-3.147 3.413-4.856 8.05-4.856 13.032 0 5.182 1.944 9.88 5.97 14.738h0c3.56 4.295 8.65 8.633 14.436 13.563l.047.04.007.007.003.002z" fill="#FEDA22" stroke="#FFFACB" stroke-width="2"/><circle opacity=".3" cx="51.457" cy="51.405" r="50.67" fill="#FEDA22"/></svg>